<svg width="30" height="30" viewBox="0 0 30 30" fill="none" xmlns="http://www.w3.org/2000/svg">
<path d="M13.3129 0.322525C11.355 0.652398 9.46 1.228 7.73609 2.01645C6.01219 2.80489 4.49316 3.79074 3.26579 4.91768C2.03842 6.04461 1.12674 7.29055 0.582836 8.58433C0.0389331 9.87811 -0.126539 11.1944 0.0958705 12.4579C0.488089 14.6842 2.06467 16.6397 4.55681 17.9908C7.04895 19.3419 10.3023 20.0051 13.7622 19.8672C15.2901 23.3643 12.6645 26.7419 8.39557 30C13.9291 28.22 19.7066 24.0625 19.9313 18.7602C23.1424 17.7243 25.8784 16.0392 27.6909 13.981C29.5034 11.9229 30.2848 9.61387 29.9071 7.43244C29.6856 6.1689 29.0807 4.98269 28.1268 3.94154C27.173 2.90038 25.8889 2.02469 24.348 1.36446C22.807 0.704231 21.0394 0.272398 19.146 0.0936209C17.2525 -0.0851558 15.2704 -0.0073739 13.3129 0.322525Z" fill="white"/>
</svg>
